<svg fill="none" height="23" viewBox="0 0 166 23" width="166" xmlns="http://www.w3.org/2000/svg"><g fill="#14f5da"><path d="m30.7409 0h-6.1481v18.8458h6.1481z"/><path d="m46.1105 18.8462h-15.3703v3.1409h15.3703z"/><path d="m0 21.9864h6.14814v-9.4229h12.29636v-3.14095h-12.29636v-6.28193h-6.14814z"/><path d="m21.5188 0h-15.37036v3.14096h15.37036z"/><path d="m110.667 3.14062h-6.148v18.84578h6.148v-6.2819h6.148v3.1409h3.074v3.141h9.222v-3.141h-3.074v-3.1409h-3.074v-3.141h-12.296z"/><path d="m122.963 0h-12.296v3.14096h12.296z"/><path d="m129.11 3.14062h-6.147v9.42288h6.147z"/><path d="m82.9997 3.14062h-6.1481v15.70478h6.1481z"/><path d="m101.445 3.14062h-6.1481v15.70478h6.1481z"/><path d="m95.2963 0h-12.2963v3.14096h12.2963z"/><path d="m95.2963 18.8462h-12.2963v3.1409h12.2963z"/><path d="m55.3327 3.14062h-6.1481v15.70478h6.1481z"/><path d="m73.778 3.14062h-6.1481v15.70478h6.1481z"/><path d="m67.6293 0h-12.2963v3.14096h12.2963z"/><path d="m67.6293 18.8462h-12.2963v3.1409h12.2963z"/><path d="m166.001 19h-30.741v3.1409h30.741z"/></g></svg>