<svg xmlns="http://www.w3.org/2000/svg" xmlns:xlink="http://www.w3.org/1999/xlink" width="120" height="120" viewBox="0 0 120 120">
  <defs>
    <clipPath id="clip-path">
      <rect id="Rectangle_1" data-name="Rectangle 1" width="120" height="120" transform="translate(3.26 3.93)"/>
    </clipPath>
  </defs>
  <g id="Group_4" data-name="Group 4" transform="translate(-3.26 -3.93)">
    <g id="Group_3" data-name="Group 3">
      <g id="Group_1" data-name="Group 1" clip-path="url(#clip-path)">
        <path id="Path_1" data-name="Path 1" d="M.5.5V127.36H127.36V.5Z" fill="#394b5f"/>
      </g>
      <g id="Group_2" data-name="Group 2" clip-path="url(#clip-path)">
        <path id="Path_2" data-name="Path 2" d="M.5.5V127.36H127.36V.5Z" fill="none" stroke="#34485d" stroke-width="1"/>
      </g>
    </g>
    <path id="Path_3" data-name="Path 3" d="M29.31,51.14H39.83V43.67H29.31v7.47Zm0,32.07H39.83V54.56H29.31V83.21ZM48.69,49.3v5.26H44.81V62.6h3.88V72.68a19.646,19.646,0,0,0,.89,6.94,6.281,6.281,0,0,0,2.75,3.19,12.224,12.224,0,0,0,5.79,1.05,33.067,33.067,0,0,0,7.29-.89l-.78-7.58a11.034,11.034,0,0,1-3.26.7,1.912,1.912,0,0,1-1.81-.92,5.69,5.69,0,0,1-.34-2.42V62.6h5.79V54.56H59.22V43.66L48.69,49.3ZM72.27,81.62q3.195,2.235,10.71,2.24a20.813,20.813,0,0,0,8.41-1.39,9.793,9.793,0,0,0,4.52-3.73,9.078,9.078,0,0,0,1.43-4.82,7.962,7.962,0,0,0-1.36-4.5,8.58,8.58,0,0,0-3.91-3.15,29.541,29.541,0,0,0-7.8-1.72,16.2,16.2,0,0,1-4.5-.97,1.708,1.708,0,0,1-1.03-1.59,1.994,1.994,0,0,1,.81-1.6,4.118,4.118,0,0,1,2.6-.66,5.172,5.172,0,0,1,3,.86,3.6,3.6,0,0,1,1.29,2.02l9.97-1.03a12.732,12.732,0,0,0-2.6-4.45,9.313,9.313,0,0,0-3.9-2.43,24.736,24.736,0,0,0-7.25-.78,22.317,22.317,0,0,0-7.42,1.01,9.332,9.332,0,0,0-4.34,3.06,8.169,8.169,0,0,0-.12,9.49,8.073,8.073,0,0,0,3.59,2.87,45.584,45.584,0,0,0,7.61,1.85,21.287,21.287,0,0,1,4.52,1.13,2.008,2.008,0,0,1,1.19,1.83,2.139,2.139,0,0,1-.9,1.75,5.084,5.084,0,0,1-3.28.94,5.176,5.176,0,0,1-3.1-.84,5.346,5.346,0,0,1-1.81-2.78L68.16,75.26a10.152,10.152,0,0,0,4.11,6.36Z" fill="#5cbfdd"/>
  </g>
</svg>
