<svg viewBox="0 0 604 182" fill="none" xmlns="http://www.w3.org/2000/svg">
<path d="M185.599 11.2637H139.764L97.3108 56.3655L125.788 85.4162L185.599 21.5942V11.2637Z" fill="url(#paint0_radial_301_1025)"/>
<path d="M108.625 89.6257H100.677H63.4803L63.4198 89.6927L0.136475 159.153V170.737H47.5168L114.689 95.7562L108.625 89.6257Z" fill="url(#paint1_radial_301_1025)"/>
<path opacity="0.5" d="M47.5181 158.922V170.736L114.689 95.7549L108.625 89.6257L47.5181 158.922Z" fill="url(#paint2_linear_301_1025)"/>
<path opacity="0.5" d="M185.599 11.3096L120.378 79.8456L125.797 85.4078L185.599 21.5975V11.3096Z" fill="url(#paint3_linear_301_1025)"/>
<path d="M18.1738 40.3237L33.239 55.8233C36.0949 53.7884 38.126 51.7922 40.3168 49.6374C44.491 45.5237 49.2219 40.8624 59.9622 35.9381C65.1635 33.554 69.393 32.2008 73.0414 31.3812L57.319 15.272C54.418 15.9421 51.124 17.0363 46.9073 18.9719C38.0924 23.0186 34.6644 26.4002 30.7003 30.3128C27.5906 33.3852 24.169 36.7616 18.1738 40.3237Z" fill="white"/>
<path d="M138.321 125.281C132.728 125.739 127.899 126.136 119.009 130.197C115.272 131.907 112.493 133.498 110.23 135.059L125.35 150.604C127.306 149.469 129.526 148.315 132.088 147.145C142.893 142.215 149.543 141.669 155.414 141.186C161.017 140.726 165.853 140.329 174.762 136.264C174.919 136.192 175.062 136.123 175.216 136.052L159.701 120.164C150.025 124.311 143.826 124.822 138.321 125.281Z" fill="white"/>
<path d="M48.6883 58.1287C46.6702 60.1172 44.518 62.2346 41.6222 64.4435L56.2222 79.4675C56.9233 78.8038 57.6102 78.1298 58.3125 77.4378C62.4958 73.3241 67.237 68.6628 77.9928 63.7373C87.4134 59.4226 93.6676 58.4702 98.9991 57.9779L83.3513 41.9409C78.1088 42.3778 73.3482 42.9178 64.9328 46.7762C56.0985 50.8254 52.6654 54.2097 48.6883 58.1287Z" fill="white"/>
<path d="M125.796 85.4168L109.592 68.8347C106.878 69.2961 104.476 69.4971 102.199 69.6827C96.6239 70.1402 91.8105 70.5346 82.9582 74.5889C74.5119 78.4551 70.9897 81.7182 67.2202 85.4143L63.4185 89.6993L63.4791 89.6323H100.674C108.922 86.6038 114.803 86.4878 119.768 86.0805C121.802 85.9079 123.734 85.7468 125.796 85.4168Z" fill="white"/>
<path d="M197.307 158.694L183.967 145.025C182.656 145.716 181.243 146.412 179.705 147.114C168.9 152.045 162.25 152.592 156.379 153.074C150.776 153.534 145.94 153.931 137.031 157.996C135.928 158.499 134.91 158.991 133.962 159.477L144.689 170.514H197.304L197.307 158.694Z" fill="white"/>
<path d="M134.986 94.8433C128.908 96.7583 124.386 97.1359 120.259 97.4736C117.583 97.6939 115.077 97.9027 112.221 98.5045L94.2178 118.578L101.832 126.413C104.876 124.144 108.73 121.774 114.053 119.346C124.842 114.417 131.484 113.871 137.345 113.389C141.534 113.047 145.294 112.736 150.653 110.897L134.986 94.8433Z" fill="white"/>
<path d="M0 11.5103V21.6281L9.57145 31.4753C15.9095 28.1491 18.9225 25.185 22.3222 21.8291C25.5221 18.6692 29.0533 15.1857 35.3784 11.5103H0Z" fill="white"/>
<path d="M270.5 100.451L240.622 34.6332H268.046L288.109 81.5431L284.356 80.2441H294.749L290.707 81.5431L308.461 34.6332H334.442L307.162 100.451H270.5ZM275.696 140V96.9873H301.966V140H275.696ZM340.473 140V60.3254H366.743V140H340.473ZM330.37 79.378V60.3254H366.743V79.378H330.37ZM351.299 53.9745C346.487 53.9745 342.927 52.7717 340.618 50.3661C338.405 47.8642 337.298 44.6888 337.298 40.8398C337.298 36.9908 338.405 33.8634 340.618 31.4578C342.927 28.9559 346.439 27.705 351.154 27.705C355.966 27.705 359.478 28.9559 361.691 31.4578C363.904 33.8634 365.011 36.9908 365.011 40.8398C365.011 44.6888 363.904 47.8642 361.691 50.3661C359.478 52.7717 356.014 53.9745 351.299 53.9745ZM419.108 142.887C412.373 142.887 406.407 141.732 401.21 139.423C396.014 137.113 391.636 133.986 388.076 130.041C384.515 126.095 381.773 121.669 379.848 116.762C378.02 111.854 377.106 106.802 377.106 101.606V98.7193C377.106 93.3307 378.02 88.1826 379.848 83.2752C381.773 78.2714 384.467 73.8451 387.931 69.9961C391.492 66.147 395.822 63.1159 400.922 60.9028C406.022 58.5933 411.795 57.4386 418.242 57.4386C426.806 57.4386 434.071 59.3632 440.037 63.2122C446.003 67.0612 450.574 72.1611 453.749 78.512C456.925 84.7666 458.513 91.5986 458.513 99.008V107.38H388.076V93.2345H443.357L434.264 99.5854C434.264 95.0628 433.638 91.2619 432.387 88.1826C431.233 85.0072 429.453 82.6016 427.047 80.9657C424.737 79.3299 421.803 78.512 418.242 78.512C414.778 78.512 411.747 79.3299 409.149 80.9657C406.647 82.5054 404.723 84.911 403.375 88.1826C402.028 91.3581 401.355 95.3995 401.355 100.307C401.355 104.733 401.98 108.582 403.231 111.854C404.482 115.03 406.407 117.483 409.005 119.215C411.603 120.947 414.971 121.813 419.108 121.813C422.765 121.813 425.748 121.188 428.057 119.937C430.463 118.686 432.147 117.002 433.109 114.885H457.069C455.915 120.274 453.605 125.085 450.141 129.319C446.773 133.553 442.443 136.873 437.151 139.278C431.954 141.684 425.94 142.887 419.108 142.887ZM469.183 140V34.6332H495.453V140H469.183ZM460.234 53.6859V34.6332H495.453V53.6859H460.234ZM543.26 142.598C537.679 142.598 532.579 141.588 527.961 139.567C523.438 137.546 519.493 134.756 516.125 131.195C512.853 127.539 510.303 123.257 508.475 118.349C506.743 113.442 505.877 108.101 505.877 102.328V98.8637C505.877 93.0901 506.695 87.7496 508.331 82.8421C510.063 77.8384 512.516 73.5083 515.692 69.8517C518.867 66.0989 522.716 63.2122 527.239 61.1914C531.761 59.0745 536.813 58.016 542.394 58.016C548.841 58.016 554.326 59.4594 558.849 62.3461C563.468 65.1367 566.98 69.2263 569.386 74.6149C571.887 80.0035 573.235 86.5468 573.427 94.2448L567.365 89.7704V34.6332H593.634V140H572.85V107.668H575.736C575.544 114.789 574.101 120.995 571.406 126.288C568.712 131.484 564.959 135.526 560.148 138.412C555.433 141.203 549.804 142.598 543.26 142.598ZM550.333 120.947C553.508 120.947 556.395 120.226 558.993 118.782C561.688 117.339 563.853 115.222 565.488 112.431C567.124 109.641 567.942 106.273 567.942 102.328V97.4203C567.942 93.5713 567.076 90.3477 565.344 87.7496C563.708 85.1515 561.543 83.1789 558.849 81.8318C556.251 80.3884 553.412 79.6667 550.333 79.6667C546.869 79.6667 543.742 80.5808 540.951 82.4091C538.257 84.1412 536.092 86.5949 534.456 89.7704C532.916 92.8496 532.146 96.458 532.146 100.596C532.146 104.733 532.916 108.342 534.456 111.421C536.092 114.404 538.257 116.762 540.951 118.494C543.742 120.129 546.869 120.947 550.333 120.947Z" fill="#FAFAFA"/>
<defs>
<radialGradient id="paint0_radial_301_1025" cx="0" cy="0" r="1" gradientUnits="userSpaceOnUse" gradientTransform="translate(97.5595 69.6305) scale(101.422 101.422)">
<stop offset="0.36" stop-color="#FF6D41"/>
<stop offset="1" stop-color="#FA297F"/>
</radialGradient>
<radialGradient id="paint1_radial_301_1025" cx="0" cy="0" r="1" gradientUnits="userSpaceOnUse" gradientTransform="translate(97.5596 69.6311) scale(101.422 101.422)">
<stop offset="0.36" stop-color="#FF6D41"/>
<stop offset="1" stop-color="#FA297F"/>
</radialGradient>
<linearGradient id="paint2_linear_301_1025" x1="47.1946" y1="164.358" x2="109.161" y2="95.7665" gradientUnits="userSpaceOnUse">
<stop offset="0.03" stop-color="#652CB4" stop-opacity="0"/>
<stop offset="0.07" stop-color="#652CB4" stop-opacity="0.07"/>
<stop offset="0.14" stop-color="#652CB4" stop-opacity="0.25"/>
<stop offset="0.23" stop-color="#652CB4" stop-opacity="0.55"/>
<stop offset="0.35" stop-color="#652CB4" stop-opacity="0.95"/>
<stop offset="0.36" stop-color="#652CB4"/>
<stop offset="0.67" stop-color="#652CB4"/>
<stop offset="1" stop-color="#652CB4" stop-opacity="0"/>
</linearGradient>
<linearGradient id="paint3_linear_301_1025" x1="125.6" y1="80.9294" x2="178.601" y2="22.4714" gradientUnits="userSpaceOnUse">
<stop offset="0.03" stop-color="#652CB4" stop-opacity="0"/>
<stop offset="0.07" stop-color="#652CB4" stop-opacity="0.07"/>
<stop offset="0.14" stop-color="#652CB4" stop-opacity="0.25"/>
<stop offset="0.24" stop-color="#652CB4" stop-opacity="0.55"/>
<stop offset="0.37" stop-color="#652CB4" stop-opacity="0.95"/>
<stop offset="0.38" stop-color="#652CB4"/>
<stop offset="0.7" stop-color="#652CB4"/>
<stop offset="1" stop-color="#652CB4" stop-opacity="0"/>
</linearGradient>
</defs>
</svg>
