<?xml version="1.0" encoding="UTF-8" standalone="no"?>
<!-- Created with Inkscape (http://www.inkscape.org/) -->

<svg
   version="1.1"
   id="svg2"
   xml:space="preserve"
   width="2666.6667"
   height="2666.6667"
   viewBox="0 0 2666.6667 2666.6667"
   sodipodi:docname="shutterstock_1875934654.eps"
   xmlns:inkscape="http://www.inkscape.org/namespaces/inkscape"
   xmlns:sodipodi="http://sodipodi.sourceforge.net/DTD/sodipodi-0.dtd"
   xmlns="http://www.w3.org/2000/svg"
   xmlns:svg="http://www.w3.org/2000/svg"><defs
     id="defs6" /><sodipodi:namedview
     id="namedview4"
     pagecolor="#ffffff"
     bordercolor="#666666"
     borderopacity="1.0"
     inkscape:pageshadow="2"
     inkscape:pageopacity="0.0"
     inkscape:pagecheckerboard="0" /><g
     id="g8"
     inkscape:groupmode="layer"
     inkscape:label="ink_ext_XXXXXX"
     transform="matrix(1.3333333,0,0,-1.3333333,0,2666.6667)"><g
       id="g10"
       transform="scale(0.1)"><path
         d="M 20000,0 H 0 V 20000 H 20000 V 0"
         style="fill:#f7df1e;fill-opacity:1;fill-rule:nonzero;stroke:none"
         id="path12" /><path
         d="m 16955.7,6623.4 c -457.6,266.5 -957.9,458.7 -1432,698.2 -100.8,50.9 -206.2,98.6 -310.8,147.7 l -430,244.7 c -75.3,42.8 -144.9,95.5 -204.8,158.1 -0.4,0.5 -0.8,0.9 -1.2,1.3 -51.3,53.9 -96.8,123.1 -134.1,200.7 -147.9,255.6 -179.2,541.2 -57.7,781 219.3,432.9 853.6,552.5 1416.8,267.1 297.6,-150.8 515.8,-384.4 623,-635.2 433,276.4 837,533.1 1239,792.8 59.4,38.3 109.4,91.2 159,133.3 -494.8,1080 -1595.5,1643.9 -2955.7,1530.2 -1187.3,-99.3 -2116.5,-801.8 -2389.2,-1806.4 -313.6,-1155.4 107.7,-2305.7 1126.2,-2983.1 342,-227.4 725.2,-394.3 1095.2,-577.6 423.3,-209.7 860.1,-393.1 1277.6,-613.5 375.7,-198.3 563.3,-522.7 483.2,-956.7 -78.2,-424.3 -398.7,-614.2 -777.7,-690.4 -822.4,-165.5 -1523.1,47.2 -2048.8,732.1 -86.6,112.8 -178.4,221.7 -274.3,340.5 -518.3,-302.3 -1001.5,-584.1 -1533.3,-894.3 113.1,-188.5 184.6,-334 279.6,-462.1 1015,-1368.7 2436.6,-1647.4 3999.3,-1406.2 1267.2,195.6 2085.7,979.4 2260,2013 221.4,1312.9 -228.9,2297.6 -1409.3,2984.8"
         style="fill:#1d1d1b;fill-opacity:1;fill-rule:nonzero;stroke:none"
         id="path14" /><path
         d="m 9078.03,10957.7 c 0,0 63.18,-4477.8 58.29,-6540.5 -1.04,-433.8 -157.2,-841.3 -628.92,-1016.2 -499.15,-185.1 -1025.73,-22.1 -1360.3,410.7 -120.95,156.5 -225.37,325.7 -360.02,522.3 -534.17,-322.8 -1054.31,-637.4 -1591.18,-961.9 64,-137.4 100.99,-236.3 153.36,-326.2 726.8,-1248.9 2280.78,-1803.4 3836.83,-1367.2 902.31,252.9 1505.41,828.3 1741.31,1734.1 107.1,411.6 152.2,849.7 155.7,1276.2 15.6,1985.6 9.3,6268.7 9.3,6268.7 H 9078.03"
         style="fill:#1d1d1b;fill-opacity:1;fill-rule:nonzero;stroke:none"
         id="path16" /></g></g></svg>
